<?xml version="1.0" encoding="UTF-8" standalone="no"?>
<!-- Uploaded to: SVG Repo, www.svgrepo.com, Generator: SVG Repo Mixer Tools -->

<svg
   aria-label="Gmail"
   role="img"
   viewBox="0 0 512 512"
   version="1.1"
   id="svg5"
   sodipodi:docname="logo.svg"
   inkscape:version="1.3.2 (091e20e, 2023-11-25, custom)"
   xmlns:inkscape="http://www.inkscape.org/namespaces/inkscape"
   xmlns:sodipodi="http://sodipodi.sourceforge.net/DTD/sodipodi-0.dtd"
   xmlns="http://www.w3.org/2000/svg"
   xmlns:svg="http://www.w3.org/2000/svg">
  <defs
     id="defs5" />
  <sodipodi:namedview
     id="namedview5"
     pagecolor="#ffffff"
     bordercolor="#000000"
     borderopacity="0.25"
     inkscape:showpageshadow="2"
     inkscape:pageopacity="0.0"
     inkscape:pagecheckerboard="0"
     inkscape:deskcolor="#d1d1d1"
     inkscape:zoom="0.55657038"
     inkscape:cx="240.76021"
     inkscape:cy="204.82585"
     inkscape:window-width="1920"
     inkscape:window-height="1010"
     inkscape:window-x="-6"
     inkscape:window-y="-6"
     inkscape:window-maximized="1"
     inkscape:current-layer="svg5" />
  <rect
     style="fill:#ffffff;stroke-width:0.999999px;-inkscape-stroke:none;paint-order:stroke fill markers"
     id="rect6"
     width="480"
     height="480"
     x="16"
     y="16"
     rx="16"
     ry="16" />
  <g
     id="g5"
     transform="translate(0,-11.832615)">
    <path
       d="M 158,391 V 249 L 76,186 v 175 q 0,30 30,30"
       fill="#4285f4"
       id="path1" />
    <path
       d="m 154,248 102,77 102,-77 V 150 L 256,227 154,150"
       fill="#ea4335"
       id="path2" />
    <path
       d="M 354,391 V 249 l 82,-63 v 175 q 0,30 -30,30"
       fill="#34a853"
       id="path3" />
    <path
       d="m 76,188 82,63 v -98 l -30,-23 c -27,-21 -52,0 -52,26"
       fill="#c5221f"
       id="path4" />
    <path
       d="m 436,188 -82,63 v -98 l 30,-23 c 27,-21 52,0 52,26"
       fill="#fbbc04"
       id="path5" />
  </g>
  <path
     d="M 409.45454,323.45455 V 300 l -31.27273,31.27274 31.27273,31.27272 v -23.45454 c 25.87818,0 46.90909,21.03091 46.90909,46.90908 0,7.89637 -1.95454,15.40182 -5.47273,21.89092 l 11.41455,11.41454 C 468.40364,409.6891 472,398.27454 472,386 c 0,-34.55635 -27.98908,-62.54545 -62.54546,-62.54545 z m 0,109.45454 c -25.87817,0 -46.90908,-21.03091 -46.90908,-46.90909 0,-7.89636 1.95454,-15.40181 5.47273,-21.89091 l -11.41455,-11.41455 c -6.09819,9.61637 -9.69455,21.03091 -9.69455,33.30546 0,34.55636 27.98909,62.54545 62.54545,62.54545 V 472 l 31.27274,-31.27272 -31.27274,-31.27272 z"
     id="path2-5"
     style="stroke-width:7.81818" />
  <text
     xml:space="preserve"
     style="font-size:150.832px;line-height:normal;font-family:Limelight;-inkscape-font-specification:Limelight;text-align:center;text-decoration-color:#000000;text-anchor:middle;fill:#ff00ff;stroke-width:1.57116px;-inkscape-stroke:none;paint-order:stroke fill markers"
     x="220.80692"
     y="168.78131"
     id="text5"><tspan
       sodipodi:role="line"
       id="tspan5"
       x="220.8069"
       y="168.78131"
       style="font-style:italic;font-variant:normal;font-weight:normal;font-stretch:normal;font-size:150.832px;font-family:Roboto;-inkscape-font-specification:'Roboto Italic';fill:#000000;stroke-width:1.57116px">POP3</tspan></text>
</svg>
